<svg xmlns="http://www.w3.org/2000/svg" viewBox="0 0 64 64" role="img" aria-label="Popcorn icon">
  <rect width="64" height="64" rx="16" fill="#161616"/>
  <path d="M20 25c0-6.1 5.4-11 12-11s12 4.9 12 11c0 1.1-.2 2.2-.5 3.2H20.5c-.3-1-.5-2.1-.5-3.2z" fill="#FFF4C8"/>
  <path d="M17 30h30l-3.2 22.2c-.2 1.5-1.4 2.6-3 2.6H23.2c-1.5 0-2.8-1.1-3-2.6L17 30z" fill="#D94848"/>
  <path d="M23.5 30h4.5v22.8h-4.5zM32.25 30h4.5v22.8h-4.5zM41 30h4.5v22.8H41z" fill="#FFF4C8"/>
  <path d="M23 23c0-2.6 2.1-4.7 4.7-4.7 1.2 0 2.3.5 3.1 1.2.7-3 3.4-5.2 6.7-5.2 3.7 0 6.8 2.8 7.1 6.4 2.1.5 3.7 2.3 3.7 4.5 0 2.6-2.1 4.7-4.7 4.7H27.7c-2.6 0-4.7-2.1-4.7-4.7z" fill="#FFF9E6"/>
</svg>